<svg width="24" height="24" viewBox="0 0 24 24" fill="none" xmlns="http://www.w3.org/2000/svg">
<path d="M19.8861 7.42595C19.9431 7.41495 20.0121 7.40795 20.0651 7.39995C20.1349 7.39855 20.2038 7.41544 20.2651 7.44895C20.2754 7.45465 20.2871 7.45725 20.2989 7.45643C20.3106 7.45561 20.3219 7.4514 20.3313 7.44431C20.3407 7.43723 20.3479 7.42757 20.3519 7.4165C20.356 7.40543 20.3567 7.39343 20.3541 7.38195C20.3341 7.31895 20.3051 7.24395 20.2891 7.19195C20.2817 7.1692 20.2687 7.14871 20.2512 7.13243C20.2337 7.11615 20.2123 7.10462 20.1891 7.09895C20.1616 7.09296 20.1377 7.07633 20.1225 7.05271C20.1073 7.02908 20.1021 7.0004 20.1081 6.97295C20.1171 6.93405 20.1337 6.89733 20.1571 6.86495C20.227 6.77563 20.2761 6.67179 20.3006 6.56105C20.3252 6.4503 20.3247 6.33546 20.2991 6.22495C20.2637 6.11789 20.1933 6.02591 20.0991 5.96395C20.0896 5.95827 20.0814 5.9506 20.0751 5.94147C20.0688 5.93233 20.0646 5.92195 20.0627 5.91104C20.0608 5.90012 20.0613 5.88892 20.0641 5.8782C20.0669 5.86749 20.072 5.85751 20.0791 5.84895C20.1066 5.8111 20.122 5.76575 20.1231 5.71895C20.1197 5.61828 20.0994 5.5189 20.0631 5.42495C20.0536 5.36935 20.0536 5.31255 20.0631 5.25695C20.0791 5.17895 19.9771 5.13095 19.9771 5.13095C19.9771 5.13095 20.0541 5.04895 19.9771 4.88495C19.9001 4.72095 19.3771 4.66995 19.3771 4.66995C19.3771 4.66995 19.4541 4.33495 19.0321 4.16995C18.6911 4.03995 18.4191 4.56995 18.3261 4.78695C18.3138 4.81279 18.2929 4.83358 18.267 4.84579C18.2412 4.858 18.2118 4.86088 18.1841 4.85395C18.1698 4.85233 18.1562 4.8469 18.1448 4.83822C18.1334 4.82955 18.1245 4.81796 18.119 4.80466C18.1136 4.79137 18.1119 4.77686 18.114 4.76265C18.1161 4.74845 18.122 4.73508 18.1311 4.72395L18.4111 4.42395C18.4232 4.41059 18.4319 4.3945 18.4364 4.37706C18.441 4.35962 18.4413 4.34133 18.4372 4.32376C18.4332 4.30619 18.425 4.28985 18.4133 4.27613C18.4016 4.26241 18.3868 4.25171 18.3701 4.24495L18.3381 4.22995L18.3541 4.22295C18.4132 4.20251 18.4618 4.15943 18.4892 4.10317C18.5166 4.04692 18.5205 3.98209 18.5001 3.92295V3.92195C18.4884 3.88887 18.4697 3.85875 18.4452 3.8337C18.4206 3.80865 18.3909 3.78928 18.3581 3.77695L18.3001 3.75395C18.2405 3.72971 18.1916 3.68504 18.1621 3.62795L18.1181 3.53895C18.0922 3.49148 18.0531 3.45253 18.0055 3.4268C17.958 3.40107 17.904 3.38966 17.8501 3.39395C17.5134 3.42365 17.1974 3.56927 16.9561 3.80595C16.4451 4.27495 16.0871 6.32895 16.0261 6.73395C16.0186 6.78115 15.9978 6.82522 15.9661 6.86095C15.9127 6.92495 15.8234 7.02662 15.6981 7.16595C15.2324 7.65686 14.642 8.01187 13.9901 8.19295C13.2269 8.28401 12.4587 8.3261 11.6901 8.31895C10.8898 8.3252 10.0949 8.18803 9.34308 7.91395C8.80508 7.59995 8.34608 5.96795 7.73308 5.36195C7.29346 4.95967 6.75584 4.67999 6.17408 4.55095C6.06189 4.52824 5.94684 4.52318 5.83308 4.53595C5.81911 4.53789 5.80487 4.53591 5.79196 4.53021C5.77905 4.52452 5.76798 4.51535 5.75999 4.50373C5.752 4.4921 5.7474 4.47848 5.74671 4.46439C5.74602 4.4503 5.74926 4.4363 5.75608 4.42395C5.78397 4.37992 5.80838 4.33378 5.82908 4.28595C5.83708 4.23795 5.76008 4.11895 5.76008 4.11895L5.62208 4.00695L5.56508 3.92895L5.41008 3.88095L5.38208 3.86195C5.37317 3.85732 5.36339 3.8546 5.35337 3.85397C5.34335 3.85335 5.33331 3.85482 5.32389 3.85831C5.31447 3.86179 5.30589 3.86721 5.29869 3.87421C5.29149 3.88121 5.28583 3.88963 5.28208 3.89895L5.23708 4.02995C5.23708 4.02995 5.13708 3.82995 5.07008 3.86195C4.96108 3.91795 5.07008 4.21195 5.07008 4.21195C5.07008 4.21195 4.87008 3.87695 4.75808 3.92895C4.55808 4.01895 4.79808 4.44995 4.79808 4.44995C4.79808 4.44995 4.64808 4.18595 4.54308 4.22695C4.49008 4.24495 4.54308 4.57695 4.54308 4.57695C4.54308 4.57695 4.43408 4.53895 4.39308 4.55795C4.35208 4.57695 4.43808 4.83695 4.43808 4.83695H4.31008C4.29343 4.83652 4.27706 4.8413 4.26326 4.85062C4.24946 4.85995 4.23891 4.87334 4.23308 4.88895L4.21708 4.93395L4.14408 4.99295C4.11519 5.01675 4.09319 5.04785 4.08036 5.08301C4.06752 5.11818 4.06432 5.15613 4.07108 5.19295L4.08708 5.27895L4.06608 5.36795L4.07508 5.46795C3.95939 5.55311 3.85431 5.65181 3.76208 5.76195C3.67935 5.89965 3.63836 6.05841 3.64408 6.21895C3.69177 6.16369 3.75367 6.12254 3.82308 6.09995L4.01408 5.99995C4.13154 5.94006 4.26424 5.91673 4.39508 5.93295H4.63508C4.5845 6.04782 4.55081 6.16942 4.53508 6.29395C4.53509 6.37736 4.55328 6.45977 4.58839 6.53543C4.62349 6.61109 4.67466 6.6782 4.73834 6.73207C4.80202 6.78595 4.87667 6.8253 4.95711 6.84738C5.03754 6.86946 5.12182 6.87375 5.20408 6.85995C5.28418 6.84903 5.3608 6.82028 5.4283 6.7758C5.4958 6.73131 5.55246 6.67225 5.59408 6.60295C5.26099 7.2951 5.04409 8.03735 4.95208 8.79995C4.82213 9.98314 5.15186 11.171 5.87308 12.1179C7.03508 13.5999 8.78108 13.9709 9.20008 14.2719C9.61908 14.5729 10.1741 15.1949 10.5641 15.4029C10.9091 15.5889 11.4091 16.1319 11.9571 16.5529C12.1554 16.7186 12.3706 16.8631 12.5991 16.9839C12.4412 17.6908 12.2196 18.382 11.9371 19.0489C11.9117 19.1014 11.8706 19.1446 11.8195 19.1725C11.7684 19.2005 11.7099 19.2118 11.6521 19.2049C11.3743 19.1782 11.0949 19.1708 10.8161 19.1829C10.6299 19.2162 10.4485 19.2723 10.2761 19.3499C10.2351 19.3649 10.2521 19.4169 10.2921 19.4169C10.4831 19.4169 10.7751 19.4169 10.8851 19.4279C10.8851 19.4279 11.1041 19.4949 11.1081 19.4949C11.0761 19.4949 10.8081 19.5029 10.7631 19.5069C10.3524 19.533 9.94483 19.5953 9.54508 19.6929C9.53724 19.6956 9.53054 19.7008 9.5261 19.7077C9.52166 19.7147 9.51974 19.723 9.52068 19.7312C9.52162 19.7394 9.52535 19.747 9.53125 19.7528C9.53715 19.7586 9.54486 19.7622 9.55308 19.7629C9.75308 19.7819 10.1381 19.8189 10.3081 19.8449C10.5641 19.8859 10.6701 20.0089 10.9381 20.0569C10.841 20.1221 10.7374 20.1771 10.6291 20.2209C10.4991 20.2509 10.3171 20.5559 10.2071 20.7569C10.1911 20.7859 10.2271 20.8199 10.2641 20.8049C10.4911 20.6859 10.9951 20.4179 11.0561 20.3959C11.4631 20.2208 11.8894 20.0946 12.3261 20.0199C12.3551 20.0129 12.4041 20.0009 12.4851 19.8749C12.7041 19.9049 12.9481 19.9459 13.1471 19.9829C13.0503 20.0484 12.9467 20.1031 12.8381 20.1459C12.7081 20.1759 12.5381 20.4699 12.4201 20.6749C12.4168 20.6826 12.4161 20.6911 12.4181 20.6992C12.42 20.7073 12.4245 20.7146 12.4309 20.72C12.4373 20.7253 12.4452 20.7285 12.4535 20.7291C12.4618 20.7296 12.4701 20.7275 12.4771 20.7229C12.6771 20.6079 13.0491 20.3879 13.2121 20.3029C13.6392 20.1422 14.0809 20.0237 14.5311 19.9489C14.5641 19.9419 14.6251 19.9229 14.7311 19.7329C14.7688 19.6674 14.8298 19.6184 14.9021 19.5959C15.0391 19.5427 15.1822 19.5064 15.3281 19.4879C15.4181 19.5879 15.7101 19.5879 15.8401 19.5809H15.9251C15.9299 19.5811 15.9347 19.5799 15.9388 19.5774C15.9429 19.5749 15.9462 19.5713 15.9484 19.5669C15.9505 19.5626 15.9513 19.5577 15.9507 19.553C15.9501 19.5482 15.9482 19.5437 15.9451 19.5399L15.8891 19.4809C15.8891 19.4729 15.7461 19.3279 15.6411 19.2279C15.4357 19.1475 15.2151 19.1134 14.9951 19.1279C15.0891 18.8749 15.2021 18.5509 15.3281 18.1159C15.4461 17.7439 15.5521 17.3679 15.6371 17.0409C16.1069 16.8124 16.4736 16.4154 16.6641 15.9289C16.9925 15.6959 17.2698 15.3984 17.4793 15.0545C17.6887 14.7106 17.8258 14.3276 17.8821 13.9289C17.8058 13.1077 17.6104 12.3019 17.3021 11.5369C17.7438 11.477 18.172 11.3417 18.5681 11.1369C19.051 10.6886 19.3518 10.0781 19.4131 9.42195C19.4517 9.0787 19.4681 8.73331 19.4621 8.38795C19.4659 8.35083 19.4791 8.31529 19.5005 8.28467C19.5218 8.25406 19.5506 8.22938 19.5841 8.21295C19.636 8.19061 19.685 8.16207 19.7301 8.12795C19.8965 8.0686 20.0683 8.02573 20.2431 7.99995C20.2543 7.99907 20.2652 7.99537 20.2746 7.98917C20.2841 7.98298 20.2918 7.9745 20.2971 7.96453C20.3024 7.95455 20.3051 7.9434 20.3049 7.93211C20.3047 7.92082 20.3017 7.90976 20.2961 7.89995C20.2387 7.82083 20.1688 7.75159 20.0891 7.69495L19.8531 7.53895C19.8434 7.53099 19.8363 7.52036 19.8326 7.50838C19.8289 7.49639 19.8288 7.48359 19.8323 7.47155C19.8358 7.45952 19.8428 7.44878 19.8523 7.44067C19.8619 7.43256 19.8736 7.42744 19.8861 7.42595ZM14.2001 19.0409C14.1601 19.1309 14.0001 19.1309 13.8921 19.1229C13.6062 19.0909 13.3182 19.0835 13.0311 19.1009C12.9193 19.1107 12.8081 19.1267 12.6981 19.1489C12.7871 18.9039 13.2831 17.2929 13.3801 16.9279C13.6461 16.8007 13.899 16.6477 14.1351 16.4709C14.4201 16.2069 14.4441 16.0759 14.4441 16.0759C14.5002 16.3857 14.6591 16.6676 14.8951 16.8759C14.7291 17.6171 14.4965 18.3417 14.2001 19.0409Z" fill="#1E1E1E"/>
</svg>
