<svg width="24" height="24" viewBox="0 0 24 24" fill="none" xmlns="http://www.w3.org/2000/svg">
<path fill-rule="evenodd" clip-rule="evenodd" d="M11 14.4999H13.5C13.5003 14.6969 13.5265 14.8874 13.5785 15.0714C13.4684 15.1168 13.3809 15.204 13.3349 15.3138C13.289 15.4236 13.2885 15.5472 13.3335 15.6574L13.3525 15.7044C13.4027 15.8271 13.4996 15.9249 13.6218 15.9762C13.7441 16.0274 13.8817 16.0281 14.0045 15.9779L14.06 15.9549C14.233 16.1559 14.441 16.3349 14.6765 16.4849C14.546 16.7284 14.635 17.0349 14.8785 17.1659C14.9953 17.2286 15.1323 17.2423 15.2592 17.2041C15.3862 17.1658 15.4927 17.0787 15.5555 16.9619L15.597 16.8849C15.9271 16.9712 16.2679 17.0094 16.609 16.9984L16.622 17.0659C16.6331 17.1316 16.6572 17.1944 16.693 17.2507C16.7287 17.3069 16.7754 17.3555 16.8302 17.3935C16.885 17.4314 16.9468 17.458 17.012 17.4718C17.0772 17.4855 17.1445 17.486 17.21 17.4734C17.2754 17.4607 17.3377 17.4351 17.3931 17.398C17.4485 17.3609 17.4959 17.3132 17.5325 17.2575C17.5692 17.2018 17.5944 17.1394 17.6065 17.0738C17.6187 17.0083 17.6177 16.941 17.6035 16.8759L17.5945 16.8284C18.0299 16.69 18.4288 16.4556 18.7615 16.1424L18.917 18.0069C18.7934 18.0278 18.6822 18.0943 18.6053 18.1934C18.5285 18.2924 18.4916 18.4166 18.5021 18.5415C18.5125 18.6664 18.5695 18.7829 18.6617 18.8677C18.7539 18.9526 18.8746 18.9998 19 18.9999H20.5V9.99989C20.5023 9.32111 20.279 8.66081 19.865 8.12289C20.1775 8.20689 20.3955 8.32939 20.55 8.47789C20.8285 8.74539 21 9.19589 21 9.99989L21.1935 12.7099C21.0755 12.8924 21 13.1784 21 13.4999C21 14.0524 21.2235 14.4999 21.5 14.4999C21.7765 14.4999 22 14.0524 22 13.4999C22 13.1784 21.924 12.8924 21.8065 12.7099L22 9.99989C22 9.08289 21.8085 8.29989 21.243 7.75639C20.6845 7.21989 19.865 7.01789 18.8565 7.00089C18.8185 6.99989 17.778 6.99989 17.75 6.99989V7.00339C17.7037 7.00115 17.6573 6.99998 17.611 6.99989H10.25C9.28247 6.99989 8.55247 6.85589 7.93947 6.66589L7.86347 6.56289C8.19847 6.47789 8.53597 6.34189 8.77847 6.16289C9.41297 5.69589 9.78197 4.75639 8.96897 4.85939C8.73297 4.88939 8.56197 4.89539 8.42297 4.90039C8.08347 4.91189 7.93297 4.91739 7.48297 5.24889C7.29947 5.38389 7.13847 5.52889 7.00747 5.67239C6.30797 5.15239 5.37647 4.91989 3.74997 4.99989C3.68367 4.99989 3.62008 5.02623 3.57319 5.07311C3.52631 5.12 3.49997 5.18358 3.49997 5.24989C3.49997 5.31619 3.52631 5.37978 3.57319 5.42667C3.62008 5.47355 3.68367 5.49989 3.74997 5.49989H4.61847C4.76097 5.59189 4.88347 5.67789 4.99197 5.75989L3.19997 7.99989H3.09397C2.93805 7.99985 2.78427 8.03628 2.64494 8.10626C2.5056 8.17624 2.38456 8.27784 2.29148 8.40293C2.1984 8.52803 2.13586 8.67315 2.10886 8.82672C2.08186 8.98029 2.09114 9.13805 2.13597 9.28739L2.28597 9.78739C2.3478 9.99338 2.4744 10.1739 2.64697 10.3023C2.81954 10.4306 3.0289 10.4999 3.24397 10.4999H4.92447C5.13595 10.4999 5.34199 10.5669 5.51297 10.6914L6.60797 11.4874C6.6413 11.5114 6.67514 11.5331 6.70947 11.5524C7.49297 13.5724 8.31947 15.1454 9.24447 15.9369L9.41697 18.0069C9.29339 18.0278 9.18217 18.0943 9.10533 18.1934C9.02849 18.2924 8.99164 18.4166 9.00208 18.5415C9.01252 18.6664 9.06949 18.7829 9.1617 18.8677C9.25391 18.9526 9.37463 18.9998 9.49997 18.9999H11V14.4999ZM15.905 14.4999H14.5C14.5 15.1649 15.217 15.9999 16.5 15.9999C16.9755 15.9999 17.3735 15.8849 17.686 15.7069C16.971 15.4219 16.4165 14.9979 15.9055 14.4999" fill="#1E1E1E"/>
</svg>
