<svg width="21" height="19" viewBox="0 0 21 19" fill="none" xmlns="http://www.w3.org/2000/svg">
<g clip-path="url(#clip0_179_607)">
<path d="M6.58072 5.25098C8.00989 4.02637 9.93854 2.96875 12.25 2.96875C14.5615 2.96875 16.4901 4.02637 17.9193 5.25098C19.3448 6.47559 20.3583 7.9377 20.8724 8.95449C21.0437 9.2959 21.0437 9.70039 20.8724 10.0418C20.3583 11.0586 19.3448 12.5207 17.9193 13.7453C16.4901 14.9736 14.5615 16.0312 12.25 16.0312C9.93854 16.0312 8.00989 14.9736 6.58072 13.749C5.9901 13.2406 5.46875 12.6914 5.02395 12.1496L1.75364 14.0867C1.29791 14.3576 0.718224 14.2834 0.342704 13.9049C-0.0328172 13.5264 -0.10938 12.94 0.15312 12.4725L1.82291 9.5L0.15312 6.52754C-0.10938 6.05996 -0.0291713 5.47363 0.34635 5.09512C0.72187 4.7166 1.29791 4.64238 1.75729 4.91328L5.0276 6.8541C5.47239 6.3123 5.99375 5.76309 6.58437 5.25469L6.58072 5.25098ZM16.3333 9.5C16.3333 9.18506 16.2104 8.88301 15.9916 8.66031C15.7728 8.43761 15.4761 8.3125 15.1667 8.3125C14.8572 8.3125 14.5605 8.43761 14.3417 8.66031C14.1229 8.88301 14 9.18506 14 9.5C14 9.81494 14.1229 10.117 14.3417 10.3397C14.5605 10.5624 14.8572 10.6875 15.1667 10.6875C15.4761 10.6875 15.7728 10.5624 15.9916 10.3397C16.2104 10.117 16.3333 9.81494 16.3333 9.5Z" fill="#1E1E1E"/>
</g>
<defs>
<clipPath id="clip0_179_607">
<rect width="21" height="19" fill="white"/>
</clipPath>
</defs>
</svg>
