<svg width="24" height="24" viewBox="0 0 24 24" fill="none" xmlns="http://www.w3.org/2000/svg">
<path d="M10.0175 16.1688L10.1441 18.6939H8.91407L8.00189 16.0966L10.0175 16.1688ZM17.075 16.1842L17.0591 16.3895L17.9099 18.6939H19.0555L18.7902 16.045C18.2218 16.1236 17.6495 16.17 17.0759 16.1842H17.075ZM18.612 8.49298C18.817 8.49036 19.0214 8.47281 19.2238 8.44048C21.6238 8.08329 20.9342 6.11736 20.9342 6.11736C20.9342 6.11736 19.0424 6.53923 18.4578 7.21517C18.4588 7.21517 17.1397 8.49298 18.613 8.49298H18.612ZM22.4488 7.30564C22.4488 7.30564 22.1295 7.30564 21.7025 7.34407C21.6021 7.75414 21.3861 8.12673 21.08 8.41751C21.2111 8.62949 21.3277 8.85015 21.4288 9.07798C22.6124 8.63595 22.4502 7.30564 22.4502 7.30564H22.4488ZM23.0019 12.0016V13.9464C23.0019 13.9464 20.5105 15.4417 16.6972 15.4417C16.5945 15.4417 16.4891 15.4347 16.3845 15.4324L16.1277 18.6939H15.237L14.0909 15.5599L6.46954 15.2847L6.02892 18.6939H4.96814C4.96814 18.6939 2.7111 13.9324 3.88157 10.1599C3.62142 9.97986 3.34813 9.77689 3.09735 9.56454C2.85688 9.68876 2.61642 9.7572 2.39423 9.74501C1.65548 9.70517 1.06438 9.14829 0.998291 9.08454L1.52142 8.54736C1.64329 8.66454 2.04688 8.97532 2.43454 8.99595C2.46121 8.99707 2.48793 8.99534 2.51423 8.99079C2.43398 8.89603 2.362 8.79456 2.29907 8.68751C2.03423 8.22673 1.97095 7.73501 2.11907 7.33798C2.1832 7.1731 2.28368 7.0248 2.41305 6.90412C2.54241 6.78343 2.69732 6.69348 2.86626 6.64095C3.39548 6.46236 4.12485 6.48392 4.49517 6.87064C4.63298 7.01454 4.83454 7.33189 4.63579 7.84095C4.46751 8.27642 4.1272 8.74751 3.72829 9.1122C3.86282 9.22001 4.00673 9.32829 4.15439 9.43423C4.59782 8.45689 5.31876 7.57892 6.42876 6.91423C8.18273 5.85669 10.1931 5.30042 12.2413 5.30595C14.2113 5.31142 16.1505 5.79597 17.8916 6.71782C17.7595 6.85309 17.6378 6.99802 17.5274 7.15142C17.1711 7.65157 17.0741 8.11189 17.2391 8.5197C17.3727 8.84782 17.7186 9.24251 18.6097 9.24251C18.8517 9.23998 19.0931 9.21961 19.332 9.18157C19.7223 9.12878 20.1019 9.01522 20.457 8.84501C21.1953 10.0506 21.2642 11.5952 21.7695 11.7044C22.3691 11.8319 23.0019 12.0016 23.0019 12.0016ZM3.93829 7.57095C3.95845 7.51845 3.98751 7.42517 3.95329 7.38954C3.89142 7.32486 3.72782 7.2836 3.53517 7.2836C3.38941 7.28279 3.24446 7.30526 3.10579 7.35017C2.95907 7.39939 2.86579 7.48189 2.82032 7.60236C2.75189 7.78751 2.79876 8.05329 2.94923 8.31439C3.01323 8.4199 3.08851 8.51813 3.17376 8.60736C3.48595 8.33454 3.79204 7.94923 3.93829 7.57095ZM19.4605 11.3936C19.4605 11.3097 19.4356 11.2277 19.389 11.1579C19.3424 11.0882 19.2761 11.0338 19.1986 11.0017C19.1211 10.9696 19.0358 10.9612 18.9535 10.9775C18.8712 10.9939 18.7956 11.0343 18.7363 11.0936C18.677 11.153 18.6366 11.2286 18.6202 11.3108C18.6038 11.3931 18.6122 11.4784 18.6443 11.5559C18.6764 11.6335 18.7308 11.6997 18.8006 11.7463C18.8703 11.7929 18.9524 11.8178 19.0363 11.8178C19.1488 11.8178 19.2567 11.7731 19.3362 11.6936C19.4158 11.614 19.4605 11.5061 19.4605 11.3936Z" fill="#1E1E1E"/>
</svg>
