<svg width="10" height="569" viewBox="0 0 10 569" fill="none" xmlns="http://www.w3.org/2000/svg">
<path d="M0.574219 8.01758C0.417969 8.01758 0.304688 8.00391 0.234375 7.97656C0.164062 7.94531 0.128906 7.90039 0.128906 7.8418C0.128906 7.81445 0.138672 7.76758 0.158203 7.70117L2.625 0.851562C2.66406 0.738281 2.80273 0.681641 3.04102 0.681641H3.3457C3.58398 0.681641 3.72266 0.738281 3.76172 0.851562L6.22852 7.70703C6.24805 7.75 6.25781 7.79492 6.25781 7.8418C6.25781 7.95898 6.11133 8.01758 5.81836 8.01758H5.73047C5.48828 8.01758 5.34766 7.96289 5.30859 7.85352L4.69922 6.14258H1.64062L1.04297 7.85352C1.00781 7.96289 0.869141 8.01758 0.626953 8.01758H0.574219ZM4.41797 5.35156L3.32812 2.25195C3.29688 2.16602 3.27148 2.06836 3.25195 1.95898C3.23242 1.84961 3.21484 1.74414 3.19922 1.64258H3.17578C3.12891 1.9043 3.07617 2.10742 3.01758 2.25195L1.92773 5.35156H4.41797ZM1.32422 28C1.21484 28 1.13477 27.9746 1.08398 27.9238C1.0332 27.873 1.00781 27.7949 1.00781 27.6895V21.0215C1.00781 20.9121 1.0332 20.834 1.08398 20.7871C1.13477 20.7363 1.21484 20.7109 1.32422 20.7109H3.1875C3.69531 20.7109 4.12305 20.7871 4.4707 20.9395C4.81836 21.0918 5.08008 21.3066 5.25586 21.584C5.43164 21.8613 5.51953 22.1836 5.51953 22.5508C5.51953 22.7773 5.4668 23.0039 5.36133 23.2305C5.25586 23.4531 5.11523 23.6465 4.93945 23.8105C4.76367 23.9707 4.57617 24.0781 4.37695 24.1328V24.1738C4.37695 24.1465 4.51172 24.1992 4.78125 24.332C5.05078 24.4609 5.29297 24.6543 5.50781 24.9121C5.72656 25.166 5.83594 25.4961 5.83594 25.9023C5.83594 27.3008 4.92969 28 3.11719 28H1.32422ZM3.14062 23.8516C3.41406 23.8516 3.66016 23.7988 3.87891 23.6934C4.09766 23.584 4.26758 23.4375 4.38867 23.2539C4.51367 23.0664 4.57617 22.8594 4.57617 22.6328C4.57617 22.2422 4.45898 21.957 4.22461 21.7773C3.99023 21.5938 3.61523 21.502 3.09961 21.502H1.92773V23.8516H3.14062ZM3.45117 27.209C3.9082 27.209 4.26172 27.0898 4.51172 26.8516C4.76172 26.6094 4.88672 26.2793 4.88672 25.8613C4.88672 25.4746 4.75 25.1758 4.47656 24.9648C4.20312 24.75 3.80078 24.6426 3.26953 24.6426H1.92773V27.209H3.45117ZM3.94922 48.0586C2.80859 48.0586 1.96484 47.7578 1.41797 47.1562C0.871094 46.5547 0.597656 45.6191 0.597656 44.3496C0.597656 41.877 1.7207 40.6406 3.9668 40.6406C4.29492 40.6406 4.61328 40.6758 4.92188 40.7461C5.23047 40.8125 5.48047 40.8965 5.67188 40.998C5.86328 41.0996 5.95898 41.1973 5.95898 41.291C5.95898 41.3496 5.9375 41.4277 5.89453 41.5254C5.85547 41.623 5.80859 41.709 5.75391 41.7832C5.69922 41.8574 5.65039 41.8945 5.60742 41.8945C5.58789 41.8945 5.5332 41.8691 5.44336 41.8184C5.24023 41.709 5.02734 41.6172 4.80469 41.543C4.58203 41.4688 4.31055 41.4316 3.99023 41.4316C3.15039 41.4316 2.53125 41.666 2.13281 42.1348C1.73828 42.5996 1.54102 43.3418 1.54102 44.3613C1.54102 45.3574 1.73633 46.0918 2.12695 46.5645C2.52148 47.0332 3.12891 47.2676 3.94922 47.2676C4.29297 47.2676 4.58789 47.2266 4.83398 47.1445C5.08008 47.0625 5.31641 46.9609 5.54297 46.8398C5.65234 46.7812 5.71875 46.752 5.74219 46.752C5.78516 46.752 5.83398 46.7891 5.88867 46.8633C5.94727 46.9375 5.99805 47.0215 6.04102 47.1152C6.08398 47.2051 6.10547 47.2695 6.10547 47.3086C6.10547 47.4062 6.00586 47.5156 5.80664 47.6367C5.61133 47.7539 5.34766 47.8535 5.01562 47.9355C4.6875 48.0176 4.33203 48.0586 3.94922 48.0586ZM1.32422 68C1.21484 68 1.13477 67.9746 1.08398 67.9238C1.0332 67.873 1.00781 67.7949 1.00781 67.6895V61.0215C1.00781 60.9121 1.0332 60.834 1.08398 60.7871C1.13477 60.7363 1.21484 60.7109 1.32422 60.7109H3.42773C4.4043 60.7109 5.18555 61 5.77148 61.5781C6.35742 62.1562 6.65039 63.0801 6.65039 64.3496C6.65039 65.627 6.35742 66.5547 5.77148 67.1328C5.18555 67.7109 4.4043 68 3.42773 68H1.32422ZM3.35742 67.209C4.06055 67.209 4.62695 66.9805 5.05664 66.5234C5.48633 66.0625 5.70117 65.3379 5.70117 64.3496C5.70117 63.6855 5.59961 63.1426 5.39648 62.7207C5.19336 62.2949 4.91602 61.9863 4.56445 61.7949C4.21289 61.5996 3.81055 61.502 3.35742 61.502H1.92773V67.209H3.35742ZM1.32422 88C1.21484 88 1.13477 87.9746 1.08398 87.9238C1.0332 87.873 1.00781 87.7949 1.00781 87.6895V81.0215C1.00781 80.9121 1.0332 80.834 1.08398 80.7871C1.13477 80.7363 1.21484 80.7109 1.32422 80.7109H4.95703C5.03125 80.7109 5.08398 80.7344 5.11523 80.7812C5.15039 80.8281 5.16797 80.9082 5.16797 81.0215V81.1914C5.16797 81.2969 5.15039 81.375 5.11523 81.4258C5.08398 81.4766 5.03125 81.502 4.95703 81.502H1.92773V83.875H4.64648C4.7207 83.875 4.77344 83.9004 4.80469 83.9512C4.83984 84.002 4.85742 84.082 4.85742 84.1914V84.3496C4.85742 84.459 4.83984 84.5391 4.80469 84.5898C4.77344 84.6367 4.7207 84.6602 4.64648 84.6602H1.92773V87.209H4.96875C5.04297 87.209 5.0957 87.2344 5.12695 87.2852C5.16211 87.332 5.17969 87.4102 5.17969 87.5195V87.6895C5.17969 87.7949 5.16211 87.873 5.12695 87.9238C5.0957 87.9746 5.04297 88 4.96875 88H1.32422ZM1.42969 108.018C1.14844 108.018 1.00781 107.941 1.00781 107.789V101.021C1.00781 100.912 1.0332 100.834 1.08398 100.787C1.13477 100.736 1.21484 100.711 1.32422 100.711H4.60547C4.67969 100.711 4.73242 100.736 4.76367 100.787C4.79492 100.834 4.81055 100.912 4.81055 101.021V101.191C4.81055 101.297 4.79492 101.375 4.76367 101.426C4.73242 101.477 4.67969 101.502 4.60547 101.502H1.92773V103.875H4.41797C4.48828 103.875 4.54102 103.9 4.57617 103.951C4.61133 104.002 4.62891 104.082 4.62891 104.191V104.35C4.62891 104.459 4.61133 104.539 4.57617 104.59C4.54102 104.637 4.48828 104.66 4.41797 104.66H1.92773V107.789C1.92773 107.941 1.78906 108.018 1.51172 108.018H1.42969ZM3.80859 128.059C2.76172 128.059 1.96484 127.758 1.41797 127.156C0.871094 126.551 0.597656 125.637 0.597656 124.414C0.597656 121.898 1.7207 120.641 3.9668 120.641C4.29492 120.641 4.61328 120.676 4.92188 120.746C5.23047 120.812 5.48047 120.896 5.67188 120.998C5.86328 121.1 5.95898 121.197 5.95898 121.291C5.95898 121.35 5.9375 121.428 5.89453 121.525C5.85547 121.623 5.80859 121.709 5.75391 121.783C5.69922 121.857 5.65039 121.895 5.60742 121.895C5.58789 121.895 5.5332 121.869 5.44336 121.818C5.24023 121.709 5.02734 121.617 4.80469 121.543C4.58203 121.469 4.31055 121.432 3.99023 121.432C3.10742 121.432 2.47852 121.676 2.10352 122.164C1.72852 122.648 1.54102 123.367 1.54102 124.32C1.54102 125.219 1.71484 125.936 2.0625 126.471C2.41406 127.002 3.01953 127.268 3.87891 127.268C4.14062 127.268 4.39258 127.256 4.63477 127.232C4.88086 127.205 5.07617 127.172 5.2207 127.133V125.029H4.00195C3.92773 125.029 3.87305 125.006 3.83789 124.959C3.80664 124.908 3.79102 124.828 3.79102 124.719V124.549C3.79102 124.439 3.80664 124.361 3.83789 124.314C3.87305 124.264 3.92773 124.238 4.00195 124.238H5.82422C5.93359 124.238 6.01367 124.264 6.06445 124.314C6.11523 124.361 6.14062 124.439 6.14062 124.549V127.309C6.14062 127.578 5.92188 127.771 5.48438 127.889C5.04688 128.002 4.48828 128.059 3.80859 128.059ZM1.42969 148.018C1.14844 148.018 1.00781 147.941 1.00781 147.789V140.916C1.00781 140.76 1.14844 140.682 1.42969 140.682H1.51172C1.78906 140.682 1.92773 140.76 1.92773 140.916V143.863H5.70117V140.916C5.70117 140.76 5.83984 140.682 6.11719 140.682H6.19922C6.47656 140.682 6.61523 140.76 6.61523 140.916V147.789C6.61523 147.867 6.58203 147.926 6.51562 147.965C6.44922 148 6.34375 148.018 6.19922 148.018H6.11719C5.97266 148.018 5.86719 148 5.80078 147.965C5.73438 147.926 5.70117 147.867 5.70117 147.789V144.654H1.92773V147.789C1.92773 147.941 1.78906 148.018 1.51172 148.018H1.42969ZM1.42969 168.018C1.14844 168.018 1.00781 167.941 1.00781 167.789V160.916C1.00781 160.76 1.14844 160.682 1.42969 160.682H1.51172C1.78906 160.682 1.92773 160.76 1.92773 160.916V167.789C1.92773 167.941 1.78906 168.018 1.51172 168.018H1.42969ZM1.11914 188.059C0.845703 188.059 0.599609 188.035 0.380859 187.988C0.166016 187.941 0.0585938 187.855 0.0585938 187.73C0.0585938 187.703 0.0683594 187.641 0.0878906 187.543C0.107422 187.445 0.132812 187.355 0.164062 187.273C0.199219 187.191 0.242188 187.15 0.292969 187.15C0.300781 187.15 0.34375 187.158 0.421875 187.174C0.523438 187.197 0.611328 187.217 0.685547 187.232C0.763672 187.244 0.851562 187.25 0.949219 187.25C1.46484 187.25 1.83594 187.148 2.0625 186.945C2.29297 186.742 2.4082 186.416 2.4082 185.967V180.916C2.4082 180.76 2.54688 180.682 2.82422 180.682H2.90625C3.1875 180.682 3.32812 180.76 3.32812 180.916V185.861C3.32812 186.553 3.15039 187.092 2.79492 187.479C2.44336 187.865 1.88477 188.059 1.11914 188.059ZM1.42969 208.018C1.14844 208.018 1.00781 207.941 1.00781 207.789V200.916C1.00781 200.76 1.14844 200.682 1.42969 200.682H1.51172C1.78906 200.682 1.92773 200.76 1.92773 200.916V204.104H1.96875L4.5293 200.834C4.57617 200.783 4.65039 200.746 4.75195 200.723C4.85742 200.695 4.97266 200.682 5.09766 200.682H5.19727C5.31445 200.682 5.4043 200.695 5.4668 200.723C5.5293 200.75 5.56055 200.783 5.56055 200.822C5.56055 200.885 5.52734 200.955 5.46094 201.033L2.85938 204.279L6.01172 207.707C6.07422 207.773 6.10547 207.828 6.10547 207.871C6.10547 207.93 6.07031 207.969 6 207.988C5.93359 208.008 5.81641 208.018 5.64844 208.018H5.51953C5.37109 208.018 5.25195 208.01 5.16211 207.994C5.07617 207.979 5.00586 207.941 4.95117 207.883L1.96875 204.531H1.92773V207.789C1.92773 207.941 1.78906 208.018 1.51172 208.018H1.42969ZM1.32422 228C1.21484 228 1.13477 227.975 1.08398 227.924C1.0332 227.873 1.00781 227.795 1.00781 227.689V220.916C1.00781 220.76 1.14844 220.682 1.42969 220.682H1.51172C1.78906 220.682 1.92773 220.76 1.92773 220.916V227.209H4.79297C4.86719 227.209 4.91992 227.234 4.95117 227.285C4.98242 227.332 4.99805 227.41 4.99805 227.52V227.689C4.99805 227.795 4.98242 227.873 4.95117 227.924C4.91992 227.975 4.86719 228 4.79297 228H1.32422ZM1.35938 248.018C1.21094 248.018 1.10352 248 1.03711 247.965C0.970703 247.926 0.9375 247.867 0.9375 247.789V240.916C0.9375 240.76 1.07812 240.682 1.35938 240.682H1.72852C1.95898 240.682 2.10547 240.746 2.16797 240.875L4.13672 244.291L4.40625 244.947L4.67578 244.35L6.65039 240.875C6.7168 240.746 6.86133 240.682 7.08398 240.682H7.42969C7.70703 240.682 7.8457 240.76 7.8457 240.916V247.789C7.8457 247.941 7.70703 248.018 7.42969 248.018H7.35938C7.21094 248.018 7.10352 248 7.03711 247.965C6.9707 247.926 6.9375 247.867 6.9375 247.789V242.182L6.91992 242.229L4.8457 245.832C4.81836 245.879 4.78711 245.914 4.75195 245.938C4.7168 245.957 4.67188 245.967 4.61719 245.967H4.20117C4.0957 245.967 4.01758 245.922 3.9668 245.832L1.8457 242.123V247.789C1.8457 247.941 1.70703 248.018 1.42969 248.018H1.35938ZM1.35938 268.018C1.21094 268.018 1.10352 268 1.03711 267.965C0.970703 267.926 0.9375 267.867 0.9375 267.789V260.916C0.9375 260.76 1.07812 260.682 1.35938 260.682H1.57617C1.68555 260.682 1.77148 260.697 1.83398 260.729C1.90039 260.76 1.95898 260.811 2.00977 260.881L5.33789 265.902L5.64844 266.488V260.916C5.64844 260.76 5.78516 260.682 6.05859 260.682H6.14062C6.41406 260.682 6.55078 260.76 6.55078 260.916V267.789C6.55078 267.867 6.51758 267.926 6.45117 267.965C6.38477 268 6.28125 268.018 6.14062 268.018H5.92969C5.83203 268.018 5.75391 268.006 5.69531 267.982C5.63672 267.959 5.5918 267.922 5.56055 267.871L2.12695 262.691L1.8457 262.152V267.789C1.8457 267.941 1.70703 268.018 1.42969 268.018H1.35938ZM3.80273 288.059C2.75977 288.059 1.96484 287.742 1.41797 287.109C0.871094 286.477 0.597656 285.551 0.597656 284.332C0.597656 283.117 0.869141 282.199 1.41211 281.578C1.95898 280.953 2.75586 280.641 3.80273 280.641C4.85352 280.641 5.65234 280.953 6.19922 281.578C6.74609 282.199 7.01953 283.117 7.01953 284.332C7.01953 285.551 6.74609 286.477 6.19922 287.109C5.65234 287.742 4.85352 288.059 3.80273 288.059ZM3.80273 287.268C4.53711 287.268 5.09961 287.018 5.49023 286.518C5.88086 286.014 6.07617 285.285 6.07617 284.332C6.07617 283.379 5.88086 282.658 5.49023 282.17C5.10352 281.678 4.54102 281.432 3.80273 281.432C3.06836 281.432 2.50781 281.678 2.12109 282.17C1.73438 282.658 1.54102 283.379 1.54102 284.332C1.54102 285.289 1.73438 286.018 2.12109 286.518C2.50781 287.018 3.06836 287.268 3.80273 287.268ZM1.30078 308.018C1.15625 308.018 1.05078 308 0.984375 307.965C0.921875 307.926 0.890625 307.867 0.890625 307.789V301.021C0.890625 300.908 0.914062 300.828 0.960938 300.781C1.01172 300.734 1.0918 300.711 1.20117 300.711H3.31055C3.91992 300.711 4.45898 300.857 4.92773 301.15C5.40039 301.439 5.63672 301.973 5.63672 302.75C5.63672 303.328 5.50195 303.777 5.23242 304.098C4.96289 304.414 4.66016 304.627 4.32422 304.736C3.98828 304.842 3.68555 304.895 3.41602 304.895H1.79883V307.789C1.79883 307.867 1.76562 307.926 1.69922 307.965C1.63281 308 1.5293 308.018 1.38867 308.018H1.30078ZM3.42773 304.104C3.60352 304.104 3.78711 304.066 3.97852 303.992C4.16992 303.914 4.33594 303.775 4.47656 303.576C4.61719 303.373 4.6875 303.098 4.6875 302.75C4.6875 302.285 4.54883 301.961 4.27148 301.777C3.99805 301.594 3.66797 301.502 3.28125 301.502H1.79883V304.104H3.42773ZM6.69141 329.541C6.64062 329.541 6.0957 329.336 5.05664 328.926C4.01758 328.52 3.38477 328.271 3.1582 328.182C2.86133 328.057 2.66211 327.977 2.56055 327.941C1.9043 327.676 1.41211 327.25 1.08398 326.664C0.759766 326.074 0.597656 325.314 0.597656 324.385C0.597656 323.162 0.871094 322.232 1.41797 321.596C1.96484 320.959 2.75977 320.641 3.80273 320.641C4.84961 320.641 5.64648 320.961 6.19336 321.602C6.74414 322.238 7.01953 323.166 7.01953 324.385C7.01953 325.369 6.83984 326.164 6.48047 326.77C6.125 327.371 5.60742 327.764 4.92773 327.947V327.988L6.97852 328.639C7.07617 328.666 7.125 328.717 7.125 328.791C7.125 328.842 7.10352 328.93 7.06055 329.055C7.01758 329.18 6.96289 329.291 6.89648 329.389C6.83008 329.49 6.76172 329.541 6.69141 329.541ZM3.80273 327.303C4.5293 327.303 5.08984 327.053 5.48438 326.553C5.87891 326.049 6.07617 325.326 6.07617 324.385C6.07617 323.756 5.98633 323.221 5.80664 322.779C5.63086 322.338 5.37305 322.004 5.0332 321.777C4.69336 321.547 4.2832 321.432 3.80273 321.432C3.32617 321.432 2.91797 321.547 2.57812 321.777C2.24219 322.004 1.98438 322.338 1.80469 322.779C1.62891 323.221 1.54102 323.756 1.54102 324.385C1.54102 325.33 1.73633 326.053 2.12695 326.553C2.52148 327.053 3.08008 327.303 3.80273 327.303ZM1.42969 348.018C1.14844 348.018 1.00781 347.941 1.00781 347.789V341.021C1.00781 340.912 1.0332 340.834 1.08398 340.787C1.13477 340.736 1.21484 340.711 1.32422 340.711H3.07617C3.9082 340.711 4.5332 340.857 4.95117 341.15C5.37305 341.443 5.58398 341.91 5.58398 342.551C5.58398 342.984 5.47852 343.35 5.26758 343.646C5.06055 343.939 4.76758 344.16 4.38867 344.309V344.35C4.5918 344.42 4.75781 344.557 4.88672 344.76C5.01953 344.959 5.16602 345.256 5.32617 345.65L6.14062 347.707C6.16016 347.777 6.16992 347.826 6.16992 347.854C6.16992 347.963 6.02344 348.018 5.73047 348.018H5.625C5.51953 348.018 5.42773 348.004 5.34961 347.977C5.27539 347.945 5.22852 347.904 5.20898 347.854L4.41797 345.809C4.31641 345.543 4.19727 345.336 4.06055 345.188C3.92383 345.039 3.76172 344.936 3.57422 344.877C3.38672 344.818 3.15039 344.789 2.86523 344.789H1.92773V347.789C1.92773 347.941 1.78906 348.018 1.51172 348.018H1.42969ZM3.29883 343.998C3.54492 343.998 3.76953 343.939 3.97266 343.822C4.17969 343.705 4.3418 343.549 4.45898 343.354C4.58008 343.154 4.64062 342.943 4.64062 342.721C4.64062 342.311 4.51562 342.006 4.26562 341.807C4.01562 341.604 3.66992 341.502 3.22852 341.502H1.92773V343.998H3.29883ZM2.54297 368.059C2.16016 368.059 1.80273 368.018 1.4707 367.936C1.14258 367.85 0.878906 367.748 0.679688 367.631C0.484375 367.51 0.386719 367.4 0.386719 367.303C0.386719 367.248 0.408203 367.176 0.451172 367.086C0.498047 366.996 0.550781 366.916 0.609375 366.846C0.667969 366.775 0.714844 366.74 0.75 366.74C0.78125 366.74 0.849609 366.771 0.955078 366.834C1.19727 366.959 1.4375 367.062 1.67578 367.145C1.91406 367.227 2.20312 367.268 2.54297 367.268C2.80859 367.268 3.04492 367.217 3.25195 367.115C3.45898 367.014 3.61914 366.871 3.73242 366.688C3.84961 366.5 3.9082 366.285 3.9082 366.043C3.9082 365.785 3.83789 365.572 3.69727 365.404C3.56055 365.232 3.39258 365.098 3.19336 365C2.99805 364.898 2.71289 364.773 2.33789 364.625C1.93164 364.469 1.60938 364.324 1.37109 364.191C1.13672 364.055 0.935547 363.857 0.767578 363.6C0.603516 363.342 0.521484 363 0.521484 362.574C0.521484 362.203 0.617188 361.871 0.808594 361.578C1 361.281 1.27148 361.051 1.62305 360.887C1.97461 360.723 2.37891 360.641 2.83594 360.641C3.04297 360.641 3.2793 360.67 3.54492 360.729C3.81055 360.783 4.03711 360.859 4.22461 360.957C4.41602 361.055 4.51172 361.162 4.51172 361.279C4.51172 361.33 4.49023 361.4 4.44727 361.49C4.4082 361.576 4.36133 361.654 4.30664 361.725C4.25195 361.795 4.20898 361.83 4.17773 361.83C4.14258 361.83 4.07227 361.801 3.9668 361.742C3.79102 361.648 3.61719 361.574 3.44531 361.52C3.27344 361.461 3.06445 361.432 2.81836 361.432C2.41602 361.432 2.08984 361.535 1.83984 361.742C1.59375 361.949 1.4707 362.238 1.4707 362.609C1.4707 362.832 1.52539 363.016 1.63477 363.16C1.74414 363.305 1.88281 363.42 2.05078 363.506C2.21875 363.592 2.45312 363.691 2.75391 363.805C2.77344 363.809 2.81836 363.824 2.88867 363.852C3.30273 364.012 3.64062 364.168 3.90234 364.32C4.16797 364.469 4.39258 364.684 4.57617 364.965C4.76367 365.246 4.85742 365.605 4.85742 366.043C4.85742 366.453 4.76172 366.811 4.57031 367.115C4.38281 367.42 4.11328 367.654 3.76172 367.818C3.41406 367.979 3.00781 368.059 2.54297 368.059ZM2.83594 388.018C2.69141 388.018 2.58594 388 2.51953 387.965C2.45312 387.926 2.41992 387.867 2.41992 387.789V381.502H0.416016C0.341797 381.502 0.289062 381.477 0.257812 381.426C0.226562 381.375 0.210938 381.297 0.210938 381.191V381.021C0.210938 380.912 0.226562 380.834 0.257812 380.787C0.289062 380.736 0.341797 380.711 0.416016 380.711H5.30273C5.37695 380.711 5.42969 380.736 5.46094 380.787C5.49219 380.834 5.50781 380.912 5.50781 381.021V381.191C5.50781 381.297 5.49219 381.375 5.46094 381.426C5.42969 381.477 5.37695 381.502 5.30273 381.502H3.33984V387.789C3.33984 387.941 3.19922 388.018 2.91797 388.018H2.83594ZM3.70898 408.059C3.10352 408.059 2.58789 407.965 2.16211 407.777C1.73633 407.586 1.41406 407.311 1.19531 406.951C0.976562 406.592 0.867188 406.162 0.867188 405.662V400.916C0.867188 400.76 1.00586 400.682 1.2832 400.682H1.36523C1.64258 400.682 1.78125 400.76 1.78125 400.916V405.697C1.78125 406.002 1.86523 406.273 2.0332 406.512C2.20117 406.75 2.43164 406.936 2.72461 407.068C3.01758 407.201 3.3457 407.268 3.70898 407.268C4.07617 407.268 4.40625 407.201 4.69922 407.068C4.99219 406.932 5.2207 406.744 5.38477 406.506C5.55273 406.268 5.63672 405.998 5.63672 405.697V400.916C5.63672 400.76 5.77539 400.682 6.05273 400.682H6.14062C6.41406 400.682 6.55078 400.76 6.55078 400.916V405.662C6.55078 406.162 6.44141 406.592 6.22266 406.951C6.00391 407.311 5.68164 407.586 5.25586 407.777C4.83008 407.965 4.31445 408.059 3.70898 408.059ZM3.05273 428.018C2.81055 428.018 2.67188 427.963 2.63672 427.854L0.251953 420.998C0.228516 420.951 0.216797 420.906 0.216797 420.863C0.216797 420.809 0.253906 420.766 0.328125 420.734C0.40625 420.699 0.519531 420.682 0.667969 420.682H0.761719C1 420.682 1.13867 420.738 1.17773 420.852L3.10547 426.412L3.21094 426.957H3.24023L3.35742 426.4L5.2793 420.852C5.32227 420.738 5.46289 420.682 5.70117 420.682H5.75977C6.06055 420.682 6.21094 420.742 6.21094 420.863C6.21094 420.902 6.19922 420.951 6.17578 421.01L3.79102 427.854C3.75586 427.963 3.61719 428.018 3.375 428.018H3.05273ZM2.39062 448.018C2.13281 448.018 1.99219 447.963 1.96875 447.854L0.1875 441.01C0.183594 440.99 0.177734 440.965 0.169922 440.934C0.162109 440.902 0.158203 440.879 0.158203 440.863C0.158203 440.809 0.195312 440.766 0.269531 440.734C0.34375 440.699 0.457031 440.682 0.609375 440.682H0.708984C0.822266 440.682 0.916016 440.695 0.990234 440.723C1.06445 440.75 1.10938 440.793 1.125 440.852L2.44922 445.979C2.47266 446.08 2.52344 446.34 2.60156 446.758C2.62109 446.879 2.63281 446.943 2.63672 446.951C2.72266 446.592 2.80664 446.258 2.88867 445.949L4.14844 440.863C4.17578 440.742 4.31055 440.682 4.55273 440.682H4.7168C4.96289 440.682 5.09961 440.742 5.12695 440.863L6.41602 445.99C6.45508 446.143 6.49219 446.324 6.52734 446.535C6.56641 446.746 6.58984 446.885 6.59766 446.951C6.67969 446.615 6.76367 446.285 6.84961 445.961L8.10938 440.852C8.13672 440.738 8.27344 440.682 8.51953 440.682H8.58398C8.88086 440.682 9.0293 440.742 9.0293 440.863C9.0293 440.891 9.01953 440.939 9 441.01L7.20117 447.854C7.16992 447.963 7.0293 448.018 6.7793 448.018H6.35742C6.10352 448.018 5.96484 447.963 5.94141 447.854L4.79883 443.611L4.58789 442.258L4.36523 443.611L3.22852 447.854C3.20508 447.963 3.06836 448.018 2.81836 448.018H2.39062ZM0.691406 468.018C0.519531 468.018 0.396484 468.004 0.322266 467.977C0.248047 467.949 0.210938 467.904 0.210938 467.842C0.210938 467.795 0.238281 467.732 0.292969 467.654L2.625 464.197L0.539062 461.051C0.484375 460.969 0.457031 460.906 0.457031 460.863C0.457031 460.742 0.617188 460.682 0.9375 460.682H1.08984C1.30859 460.682 1.45508 460.734 1.5293 460.84L3.19922 463.354L4.91602 460.834C4.95117 460.783 5.00977 460.746 5.0918 460.723C5.17383 460.695 5.26562 460.682 5.36719 460.682H5.42578C5.59766 460.682 5.7207 460.697 5.79492 460.729C5.86914 460.756 5.90625 460.801 5.90625 460.863C5.90625 460.887 5.89648 460.916 5.87695 460.951C5.86133 460.982 5.84375 461.016 5.82422 461.051L3.73828 464.145L6.08789 467.654C6.14258 467.732 6.16992 467.795 6.16992 467.842C6.16992 467.9 6.13281 467.945 6.05859 467.977C5.98438 468.004 5.86133 468.018 5.68945 468.018H5.51953C5.40234 468.018 5.30859 468.008 5.23828 467.988C5.16797 467.965 5.11328 467.922 5.07422 467.859L3.1582 465L1.21875 467.871C1.16016 467.969 1.00977 468.018 0.767578 468.018H0.691406ZM2.86523 488.018C2.58789 488.018 2.44922 487.941 2.44922 487.789V484.262L0.269531 481.051C0.214844 480.977 0.1875 480.914 0.1875 480.863C0.1875 480.742 0.347656 480.682 0.667969 480.682H0.779297C0.896484 480.682 0.990234 480.693 1.06055 480.717C1.13477 480.74 1.19141 480.781 1.23047 480.84L2.94141 483.4L4.6875 480.834C4.75 480.732 4.90625 480.682 5.15625 480.682H5.22656C5.37109 480.689 5.47461 480.709 5.53711 480.74C5.60352 480.768 5.63672 480.809 5.63672 480.863C5.63672 480.898 5.60742 480.961 5.54883 481.051L3.36914 484.291V487.789C3.36914 487.941 3.22852 488.018 2.94727 488.018H2.86523ZM0.650391 508C0.595703 508 0.539062 507.936 0.480469 507.807C0.425781 507.674 0.398438 507.555 0.398438 507.449C0.398438 507.395 0.408203 507.352 0.427734 507.32L4.69922 501.502H0.949219C0.875 501.502 0.820312 501.475 0.785156 501.42C0.753906 501.361 0.738281 501.27 0.738281 501.145V501.062C0.738281 500.938 0.753906 500.848 0.785156 500.793C0.820312 500.738 0.875 500.711 0.949219 500.711H5.71875C5.74219 500.711 5.77148 500.742 5.80664 500.805C5.8457 500.867 5.87891 500.941 5.90625 501.027C5.93359 501.113 5.94727 501.191 5.94727 501.262C5.94727 501.312 5.9375 501.354 5.91797 501.385L1.64648 507.209H5.71875C5.79297 507.209 5.8457 507.236 5.87695 507.291C5.91211 507.346 5.92969 507.436 5.92969 507.561V507.643C5.92969 507.768 5.91211 507.859 5.87695 507.918C5.8457 507.973 5.79297 508 5.71875 508H0.650391ZM0.574219 528.018C0.417969 528.018 0.304688 528.004 0.234375 527.977C0.164062 527.945 0.128906 527.9 0.128906 527.842C0.128906 527.814 0.138672 527.768 0.158203 527.701L2.625 520.852C2.66406 520.738 2.80273 520.682 3.04102 520.682H3.3457C3.58398 520.682 3.72266 520.738 3.76172 520.852L6.22852 527.707C6.24805 527.75 6.25781 527.795 6.25781 527.842C6.25781 527.959 6.11133 528.018 5.81836 528.018H5.73047C5.48828 528.018 5.34766 527.963 5.30859 527.854L4.69922 526.143H1.64062L1.04297 527.854C1.00781 527.963 0.869141 528.018 0.626953 528.018H0.574219ZM4.41797 525.352L3.32812 522.252C3.29688 522.166 3.27148 522.068 3.25195 521.959C3.23242 521.85 3.21484 521.744 3.19922 521.643H3.17578C3.12891 521.904 3.07617 522.107 3.01758 522.252L1.92773 525.352H4.41797ZM3.19922 520.283C3.03906 520.283 2.89062 520.246 2.75391 520.172C2.62109 520.094 2.51562 519.988 2.4375 519.855C2.35938 519.719 2.32031 519.57 2.32031 519.41C2.32031 519.25 2.35938 519.102 2.4375 518.965C2.51562 518.828 2.62109 518.721 2.75391 518.643C2.89062 518.564 3.03906 518.525 3.19922 518.525C3.35938 518.525 3.50586 518.564 3.63867 518.643C3.77539 518.721 3.88281 518.828 3.96094 518.965C4.03906 519.102 4.07812 519.25 4.07812 519.41C4.07812 519.57 4.03906 519.719 3.96094 519.855C3.88281 519.988 3.77539 520.094 3.63867 520.172C3.50586 520.246 3.35938 520.283 3.19922 520.283ZM3.19922 519.92C3.34375 519.92 3.4668 519.871 3.56836 519.773C3.66992 519.676 3.7207 519.555 3.7207 519.41C3.7207 519.266 3.66992 519.143 3.56836 519.041C3.4668 518.939 3.34375 518.889 3.19922 518.889C3.05469 518.889 2.93359 518.939 2.83594 519.041C2.73828 519.139 2.68945 519.262 2.68945 519.41C2.68945 519.555 2.73828 519.676 2.83594 519.773C2.93359 519.871 3.05469 519.92 3.19922 519.92ZM0.574219 548.018C0.417969 548.018 0.304688 548.004 0.234375 547.977C0.164062 547.945 0.128906 547.9 0.128906 547.842C0.128906 547.814 0.138672 547.768 0.158203 547.701L2.625 540.852C2.66406 540.738 2.80273 540.682 3.04102 540.682H3.3457C3.58398 540.682 3.72266 540.738 3.76172 540.852L6.22852 547.707C6.24805 547.75 6.25781 547.795 6.25781 547.842C6.25781 547.959 6.11133 548.018 5.81836 548.018H5.73047C5.48828 548.018 5.34766 547.963 5.30859 547.854L4.69922 546.143H1.64062L1.04297 547.854C1.00781 547.963 0.869141 548.018 0.626953 548.018H0.574219ZM4.41797 545.352L3.32812 542.252C3.29688 542.166 3.27148 542.068 3.25195 541.959C3.23242 541.85 3.21484 541.744 3.19922 541.643H3.17578C3.12891 541.904 3.07617 542.107 3.01758 542.252L1.92773 545.352H4.41797ZM2.4375 539.832C2.16016 539.832 2.02148 539.758 2.02148 539.609V539.076C2.02148 538.92 2.17383 538.842 2.47852 538.842C2.75586 538.842 2.89453 538.92 2.89453 539.076V539.609C2.89453 539.758 2.74219 539.832 2.4375 539.832ZM3.9375 539.832C3.66016 539.832 3.52148 539.758 3.52148 539.609V539.076C3.52148 538.92 3.67383 538.842 3.97852 538.842C4.25586 538.842 4.39453 538.92 4.39453 539.076V539.609C4.39453 539.758 4.24219 539.832 3.9375 539.832ZM3.80273 568.059C2.75977 568.059 1.96484 567.742 1.41797 567.109C0.871094 566.477 0.597656 565.551 0.597656 564.332C0.597656 563.117 0.869141 562.199 1.41211 561.578C1.95898 560.953 2.75586 560.641 3.80273 560.641C4.85352 560.641 5.65234 560.953 6.19922 561.578C6.74609 562.199 7.01953 563.117 7.01953 564.332C7.01953 565.551 6.74609 566.477 6.19922 567.109C5.65234 567.742 4.85352 568.059 3.80273 568.059ZM3.80273 567.268C4.53711 567.268 5.09961 567.018 5.49023 566.518C5.88086 566.014 6.07617 565.285 6.07617 564.332C6.07617 563.379 5.88086 562.658 5.49023 562.17C5.10352 561.678 4.54102 561.432 3.80273 561.432C3.06836 561.432 2.50781 561.678 2.12109 562.17C1.73438 562.658 1.54102 563.379 1.54102 564.332C1.54102 565.289 1.73438 566.018 2.12109 566.518C2.50781 567.018 3.06836 567.268 3.80273 567.268ZM3.04688 559.832C2.76953 559.832 2.63086 559.758 2.63086 559.609V559.076C2.63086 558.92 2.7832 558.842 3.08789 558.842C3.36523 558.842 3.50391 558.92 3.50391 559.076V559.609C3.50391 559.758 3.35156 559.832 3.04688 559.832ZM4.54688 559.832C4.26953 559.832 4.13086 559.758 4.13086 559.609V559.076C4.13086 558.92 4.2832 558.842 4.58789 558.842C4.86523 558.842 5.00391 558.92 5.00391 559.076V559.609C5.00391 559.758 4.85156 559.832 4.54688 559.832Z" fill="black"/>
</svg>
