<svg width="35" height="35" viewBox="0 0 35 35" fill="none" xmlns="http://www.w3.org/2000/svg">
<circle cx="17.5" cy="17.5" r="17.5" fill="#A46770" fill-opacity="0.32"/>
<path d="M27.25 18H14.895M10.534 18H8.75M10.534 18C10.534 17.4218 10.7637 16.8673 11.1725 16.4585C11.5813 16.0497 12.1358 15.82 12.714 15.82C13.2922 15.82 13.8467 16.0497 14.2555 16.4585C14.6643 16.8673 14.894 17.4218 14.894 18C14.894 18.5782 14.6643 19.1327 14.2555 19.5415C13.8467 19.9503 13.2922 20.18 12.714 20.18C12.1358 20.18 11.5813 19.9503 11.1725 19.5415C10.7637 19.1327 10.534 18.5782 10.534 18ZM27.25 24.607H21.502M21.502 24.607C21.502 25.1853 21.2718 25.7404 20.8628 26.1494C20.4539 26.5583 19.8993 26.788 19.321 26.788C18.7428 26.788 18.1883 26.5573 17.7795 26.1485C17.3707 25.7397 17.141 25.1852 17.141 24.607M21.502 24.607C21.502 24.0287 21.2718 23.4746 20.8628 23.0657C20.4539 22.6567 19.8993 22.427 19.321 22.427C18.7428 22.427 18.1883 22.6567 17.7795 23.0655C17.3707 23.4743 17.141 24.0288 17.141 24.607M17.141 24.607H8.75M27.25 11.393H24.145M19.784 11.393H8.75M19.784 11.393C19.784 10.8148 20.0137 10.2603 20.4225 9.85152C20.8313 9.44269 21.3858 9.21301 21.964 9.21301C22.2503 9.21301 22.5338 9.2694 22.7983 9.37896C23.0627 9.48851 23.3031 9.64909 23.5055 9.85152C23.7079 10.054 23.8685 10.2943 23.9781 10.5588C24.0876 10.8233 24.144 11.1067 24.144 11.393C24.144 11.6793 24.0876 11.9628 23.9781 12.2273C23.8685 12.4918 23.7079 12.7321 23.5055 12.9345C23.3031 13.1369 23.0627 13.2975 22.7983 13.4071C22.5338 13.5166 22.2503 13.573 21.964 13.573C21.3858 13.573 20.8313 13.3433 20.4225 12.9345C20.0137 12.5257 19.784 11.9712 19.784 11.393Z" stroke="#47292D" stroke-width="1.5" stroke-miterlimit="10" stroke-linecap="round"/>
</svg>
