<svg width="20" height="20" viewBox="0 0 20 20" fill="none" xmlns="http://www.w3.org/2000/svg">
<g clip-path="url(#clip0_179_595)">
<path d="M12.0833 9.5835C10.625 11.1518 9.16667 15.0002 9.16667 15.0002C9.16667 15.0002 7.08333 9.5835 5 8.3335" stroke="#1E1E1E" stroke-width="1.5" stroke-linecap="round" stroke-linejoin="round"/>
<path d="M15.0134 6.44168L15.2601 9.00835C15.4201 10.6733 14.1717 12.1558 12.5067 12.3167C10.8734 12.4733 9.3934 11.2792 9.2359 9.64585C9.19842 9.25735 9.23785 8.86527 9.35192 8.492C9.46599 8.11874 9.65248 7.7716 9.90073 7.47042C10.149 7.16924 10.4541 6.91991 10.7988 6.73668C11.1434 6.55344 11.5207 6.4399 11.9092 6.40251L14.6459 6.13918C14.7346 6.13082 14.823 6.15797 14.8917 6.21467C14.9605 6.27137 15.0039 6.353 15.0126 6.44168" stroke="#1E1E1E" stroke-width="1.5" stroke-linecap="round" stroke-linejoin="round"/>
<path d="M10.0001 18.3334C14.6026 18.3334 18.3334 14.6026 18.3334 10.0001C18.3334 5.39758 14.6026 1.66675 10.0001 1.66675C5.39758 1.66675 1.66675 5.39758 1.66675 10.0001C1.66675 14.6026 5.39758 18.3334 10.0001 18.3334Z" stroke="#1E1E1E" stroke-width="1.5" stroke-linecap="round" stroke-linejoin="round"/>
</g>
<defs>
<clipPath id="clip0_179_595">
<rect width="20" height="20" fill="white"/>
</clipPath>
</defs>
</svg>
